<?xml version="1.0" encoding="UTF-8"?>
<svg version="1.1" xmlns="http://www.w3.org/2000/svg" width="614" height="613">
<path d="M0 0 C1.67239921 3.95593578 3.33694382 7.9151284 5 11.875 C5.71542969 13.56689453 5.71542969 13.56689453 6.4453125 15.29296875 C7.12207031 16.90751953 7.12207031 16.90751953 7.8125 18.5546875 C8.23144531 19.54968262 8.65039062 20.54467773 9.08203125 21.56982422 C10 24 10 24 10 26 C9.49364014 26.24008789 8.98728027 26.48017578 8.46557617 26.72753906 C-25.47353037 42.94386461 -57.64609897 66.06673296 -82 95 C-82.4655127 95.54253418 -82.93102539 96.08506836 -83.41064453 96.64404297 C-96.8907891 112.40312745 -108.34147551 129.65775091 -118 148 C-118.33692871 148.63147949 -118.67385742 149.26295898 -119.02099609 149.91357422 C-124.86801385 160.93435065 -129.63088246 172.32101274 -134 184 C-134.27585938 184.73412109 -134.55171875 185.46824219 -134.8359375 186.22460938 C-159.04941507 251.73285439 -154.96079331 328.26654447 -126.5 391.6875 C-125.04339528 394.81394107 -123.53240324 397.91012623 -122 401 C-121.62439941 401.77279297 -121.24879883 402.54558594 -120.86181641 403.34179688 C-111.99223259 421.47850189 -100.75638724 438.36379243 -88 454 C-87.57638184 454.52513184 -87.15276367 455.05026367 -86.71630859 455.59130859 C-74.73554074 470.36157582 -61.20585462 484.5364632 -46 496 C-44.83903229 496.91172808 -43.67893968 497.82457113 -42.51953125 498.73828125 C3.33670337 534.4512013 57.54372571 552.21197714 115 557 C115 469.55 115 382.1 115 292 C35.47 292 -44.06 292 -126 292 C-126 283.09 -126 274.18 -126 265 C-37.56 265 50.88 265 142 265 C142 370.6 142 476.2 142 585 C50.58867379 585 -27.82065106 556.53613442 -93.1875 492 C-97.69979671 487.48770329 -101.82838451 482.7651573 -105.796875 477.76171875 C-108.09148827 474.88531524 -110.47864939 472.10447453 -112.875 469.3125 C-123.74558532 456.24431178 -132.54296793 441.70723267 -141 427 C-141.40992188 426.28763184 -141.81984375 425.57526367 -142.2421875 424.84130859 C-162.86394647 388.55427886 -173.95464413 347.33999129 -178 306 C-178.19722656 304.04707031 -178.19722656 304.04707031 -178.3984375 302.0546875 C-182.92414013 247.37930714 -171.76449395 192.25258775 -148 143 C-147.39961914 141.75017334 -147.39961914 141.75017334 -146.78710938 140.47509766 C-137.24564943 120.86251405 -125.27184841 102.31103373 -111.29345703 85.55371094 C-109.99050079 83.98858948 -108.71205647 82.40547104 -107.43359375 80.8203125 C-101.04232345 73.02266153 -94.04119544 65.83237672 -86.9375 58.6875 C-86.02766357 57.76839844 -85.11782715 56.84929687 -84.18041992 55.90234375 C-78.09391326 49.84374429 -71.73888552 44.3190231 -65 39 C-64.289646 38.43031494 -63.57929199 37.86062988 -62.84741211 37.27368164 C-46.68616606 24.3730905 -29.26007489 13.66373942 -11 4 C-9.915979 3.42185547 -9.915979 3.42185547 -8.81005859 2.83203125 C-8.10316895 2.46464844 -7.3962793 2.09726562 -6.66796875 1.71875 C-6.03528076 1.38810547 -5.40259277 1.05746094 -4.75073242 0.71679688 C-3 0 -3 0 0 0 Z " fill="#D70080" transform="translate(179,28)"/>
<path d="M0 0 C28.72272814 8.49352533 56.18181611 31.21375667 78 51 C78.93465088 51.84208008 78.93465088 51.84208008 79.88818359 52.70117188 C92.09551716 63.7287657 92.09551716 63.7287657 97.328125 70.0234375 C98.54518721 71.46230077 99.81327867 72.85846081 101.109375 74.2265625 C114.70737837 88.5800105 125.92207975 105.04012492 136 122 C136.43650879 122.73395996 136.87301758 123.46791992 137.32275391 124.22412109 C155.2869009 154.7624913 167.40963277 188.37436178 173.75 223.1875 C174.04825684 224.82392456 174.04825684 224.82392456 174.35253906 226.4934082 C177.31787137 243.67885678 178.3798114 260.64120387 178.3125 278.0625 C178.30976578 279.53910095 178.30976578 279.53910095 178.30697632 281.04553223 C178.25877595 296.55192139 177.63791466 311.68722708 175 327 C174.82839355 328.02319336 174.65678711 329.04638672 174.47998047 330.10058594 C171.78870352 345.72875181 167.86138959 360.91222003 163 376 C162.71318359 376.8971875 162.42636719 377.794375 162.13085938 378.71875 C149.42197227 417.73474652 127.69089482 453.42309031 100.11328125 483.66796875 C98.22623463 485.75034736 96.38941767 487.86503064 94.5625 490 C87.95210187 497.57441452 80.71660212 504.56328518 73 511 C72.46165527 511.45213867 71.92331055 511.90427734 71.36865234 512.37011719 C57.36397683 524.09374232 42.78882621 534.80530258 26.92773438 543.88916016 C24.95565087 545.02555579 23.00172018 546.18971352 21.046875 547.35546875 C-10.461881 565.82994725 -52.8978299 583 -90 583 C-90 573.76 -90 564.52 -90 555 C-85.71 554.154375 -81.42 553.30875 -77 552.4375 C-56.2887279 548.2092553 -36.36834457 542.52816588 -17 534 C-16.14841309 533.62504395 -15.29682617 533.25008789 -14.41943359 532.86376953 C8.20254331 522.7660996 28.95548483 509.83701788 48 494 C48.49902832 493.59120605 48.99805664 493.18241211 49.51220703 492.76123047 C63.59835098 481.19366013 76.91098193 468.50102362 88 454 C88.7940625 452.9996875 89.588125 451.999375 90.40625 450.96875 C101.06964445 437.47861447 109.93499318 423.1724002 118 408 C118.35304199 407.34451172 118.70608398 406.68902344 119.06982422 406.01367188 C138.21801628 370.26549139 145.70400736 332.09593132 150 292 C71.13 292 -7.74 292 -89 292 C-87.81699573 286.67648076 -86.68821041 281.67393809 -85.10253906 276.51147461 C-84.73235657 275.30015366 -84.36217407 274.0888327 -83.98077393 272.84080505 C-83.57578021 271.52796737 -83.17072869 270.21514751 -82.765625 268.90234375 C-82.33568967 267.49989628 -81.90607192 266.09735143 -81.47674561 264.69471741 C-80.55533976 261.68673096 -79.6317967 258.67941247 -78.70654297 255.67260742 C-77.22411273 250.85505267 -75.74646249 246.03603986 -74.26953125 241.21679688 C-72.46571324 235.33195274 -70.66081815 229.44744119 -68.85449982 223.56336403 C-65.70266749 213.29586958 -62.55926079 203.02582369 -59.421875 192.75390625 C-59.19712116 192.01807753 -58.97236732 191.2822488 -58.74080276 190.52412224 C-57.61109584 186.8253802 -56.48155457 183.12658761 -55.35211182 179.42776489 C-53.081924 171.99325679 -50.81049787 164.55912701 -48.5390625 157.125 C-48.31328899 156.38603045 -48.08751549 155.64706089 -47.85490036 154.88569832 C-44.04549847 142.41749721 -40.23169406 129.95064586 -36.41680336 117.48412323 C-32.4819916 104.62518003 -28.55474467 91.76394265 -24.63322449 78.90093994 C-22.38729644 71.53565287 -20.13268122 64.17312229 -17.86553955 56.81433105 C-16.68635282 52.98153744 -15.5147997 49.14644746 -14.34576416 45.31054688 C-13.83141553 43.62910421 -13.31357983 41.9487235 -12.79193115 40.26953125 C-12.10341187 38.05215899 -11.42703341 35.83145872 -10.75390625 33.609375 C-10.38595947 32.41280273 -10.0180127 31.21623047 -9.63891602 29.98339844 C-8.99255539 26.96523763 -9.25754874 25.86541498 -10 23 C-9.30322266 20.54223633 -9.30322266 20.54223633 -8.1640625 17.83203125 C-7.75929688 16.85685547 -7.35453125 15.88167969 -6.9375 14.87695312 C-6.504375 13.86568359 -6.07125 12.85441406 -5.625 11.8125 C-5.19960938 10.78962891 -4.77421875 9.76675781 -4.3359375 8.71289062 C-1.17452679 1.17452679 -1.17452679 1.17452679 0 0 Z M16 41 C4.38194172 78.52862749 -7.18941932 116.07106052 -18.65209961 153.64746094 C-18.87730065 154.38570225 -19.1025017 155.12394356 -19.33452702 155.88455582 C-20.70543178 160.37865827 -20.70543178 160.37865827 -22.07617378 164.87281036 C-25.50560325 176.11670976 -28.9472855 187.35680817 -32.39568901 198.59490204 C-33.92268616 203.5723848 -35.4480422 208.55037079 -36.97340488 213.52835464 C-38.19092589 217.50113294 -39.4095602 221.47356245 -40.63082886 225.44519043 C-41.76819339 229.1439721 -42.90265646 232.84363168 -44.03502655 236.54394531 C-44.44822599 237.89230601 -44.86248008 239.24034408 -45.27793121 240.5880127 C-45.85119142 242.44808351 -46.42016582 244.30947349 -46.98901367 246.17089844 C-47.46572762 247.72378571 -47.46572762 247.72378571 -47.95207214 249.30804443 C-49.42708099 254.50464941 -50.68985061 259.75940242 -52 265 C14.66 265 81.32 265 150 265 C150 227.7814039 139.39006003 190.25451641 123 157 C122.59056152 156.15808105 122.18112305 155.31616211 121.75927734 154.44873047 C110.80908601 132.10933669 96.89506182 111.54016453 80.04296875 93.2265625 C78.17040692 91.18572074 76.36170466 89.10536303 74.5625 87 C67.95519212 79.42912639 60.72766292 72.41832468 53 66 C52.50467773 65.58556641 52.00935547 65.17113281 51.49902344 64.74414062 C43.84265653 58.36907998 35.94648863 52.41518565 27.75 46.75 C26.92781982 46.17685059 26.10563965 45.60370117 25.25854492 45.01318359 C24.10189331 44.22548584 24.10189331 44.22548584 22.921875 43.421875 C22.23706055 42.95362305 21.55224609 42.48537109 20.84667969 42.00292969 C18.91085956 40.76137203 18.91085956 40.76137203 16 41 Z " fill="#D70080" transform="translate(436,28)"/>
<path d="M0 0 C-3.3 8.25 -6.6 16.5 -10 25 C-14.4905722 24.35848969 -18.03873441 23.81960408 -22.23046875 22.51171875 C-23.18703369 22.21950439 -24.14359863 21.92729004 -25.12915039 21.6262207 C-26.13840576 21.31644287 -27.14766113 21.00666504 -28.1875 20.6875 C-49.30924088 14.41272042 -69.86820777 11.85571513 -92 9 C-92 88.2 -92 167.4 -92 249 C-100.91 249 -109.82 249 -119 249 C-119 169.8 -119 90.6 -119 9 C-143.6570917 12.18156022 -166.83478421 15.40999334 -190.33764648 22.8527832 C-191.75605835 23.29303833 -191.75605835 23.29303833 -193.203125 23.7421875 C-194.03489258 24.0088623 -194.86666016 24.27553711 -195.72363281 24.55029297 C-198.31130147 25.06149907 -199.61077754 25.13652231 -202 24 C-203.28027344 21.91455078 -203.28027344 21.91455078 -204.359375 19.1953125 C-204.75253906 18.21949219 -205.14570313 17.24367187 -205.55078125 16.23828125 C-205.94652344 15.21089844 -206.34226563 14.18351562 -206.75 13.125 C-207.16121094 12.10535156 -207.57242188 11.08570312 -207.99609375 10.03515625 C-211 2.46052222 -211 2.46052222 -211 -1 C-186.05537792 -9.14175547 -161.13922803 -15.34105522 -135 -18 C-133.75347656 -18.13148437 -132.50695312 -18.26296875 -131.22265625 -18.3984375 C-88.13009902 -22.05118576 -39.82345182 -17.69931192 0 0 Z " fill="#D70080" transform="translate(413,19)"/>
<path d="M0 0 C1.2777832 0.02618408 2.55556641 0.05236816 3.87207031 0.0793457 C4.55448792 0.08642044 5.23690552 0.09349518 5.94000244 0.1007843 C8.11120093 0.12868674 10.27978199 0.19140443 12.45019531 0.25512695 C13.92541837 0.28021578 15.40068202 0.30302795 16.87597656 0.32348633 C20.48489435 0.37849558 24.09228922 0.46473388 27.70019531 0.56762695 C26.23059084 5.1939951 24.39852067 9.12841724 21.76269531 13.19262695 C21.37009521 13.79800293 20.97749512 14.40337891 20.57299805 15.02709961 C10.71228345 29.7940551 -2.52235266 40.59407593 -18.29980469 48.56762695 C-18.95980469 48.56762695 -19.61980469 48.56762695 -20.29980469 48.56762695 C-22.55980729 19.4791201 -22.55980729 19.4791201 -17.54589844 13.01293945 C-14.47018411 9.98712544 -10.94443525 7.84772192 -7.29980469 5.56762695 C-6.72101563 4.71096436 -6.14222656 3.85430176 -5.54589844 2.97167969 C-3.29980469 0.56762695 -3.29980469 0.56762695 0 0 Z " fill="#D70080" transform="translate(366.2998046875,344.432373046875)"/>
<path d="M0 0 C4.28638233 -0.22386695 8.56960682 -0.38639029 12.86010742 -0.49438477 C14.31643974 -0.53942597 15.77236994 -0.60068743 17.22729492 -0.67895508 C29.36004196 -1.31489557 29.36004196 -1.31489557 33.24169922 1.79736328 C34.93359375 4.09765625 34.93359375 4.09765625 36.40625 6.61523438 C38.26115607 9.39077397 40.03898304 10.37449596 42.90234375 12.03515625 C46.15429002 14.42700381 46.90331508 15.52119515 47.71533203 19.54248047 C47.99653401 23.85205526 47.78668412 28.13006292 47.5625 32.4375 C47.51730295 33.94714623 47.47624742 35.45692248 47.43945312 36.96679688 C47.34079276 40.6472542 47.18581377 44.32279319 47 48 C26.69120931 41.45142268 10.70730058 23.58526615 0.92578125 5.20703125 C0 3 0 3 0 0 Z " fill="#D70080" transform="translate(221,345)"/>
<path d="M0 0 C2.08598725 29.25998268 2.08598725 29.25998268 -2.53125 35.33203125 C-5.3413165 38.09257537 -8.62864492 39.9824274 -12 42 C-12.57427734 42.85215088 -13.14855469 43.70430176 -13.74023438 44.58227539 C-16 47 -16 47 -19.29980469 47.56762695 C-20.57758789 47.54144287 -21.85537109 47.51525879 -23.171875 47.48828125 C-23.8542926 47.48120651 -24.53671021 47.47413177 -25.23980713 47.46684265 C-27.41100561 47.43894021 -29.57958668 47.37622253 -31.75 47.3125 C-33.22522306 47.28741117 -34.70048671 47.264599 -36.17578125 47.24414062 C-39.78469904 47.18913137 -43.39209391 47.10289307 -47 47 C-44.24674198 31.56438642 -28.35339785 16.61338783 -16.06640625 7.92578125 C-3.82049266 0 -3.82049266 0 0 0 Z " fill="#D70080" transform="translate(268,220)"/>
</svg>
